<svg width="40" height="39" viewBox="0 0 40 39" fill="none" xmlns="http://www.w3.org/2000/svg">
<path d="M39.1087 19.5543C39.1087 8.75478 30.3539 0 19.5543 0C8.75478 0 0 8.75478 0 19.5543C0 29.3138 7.15122 37.4037 16.4988 38.8703V25.2059H11.5341V19.5531H16.4988V15.2448C16.4988 10.3437 19.4187 7.63644 23.8847 7.63644C26.0236 7.63644 28.2614 8.019 28.2614 8.019V12.8309H25.7962C23.3677 12.8309 22.6099 14.3379 22.6099 15.884V19.5519H28.0329L27.1663 25.2047H22.6099V38.8691C31.9587 37.4024 39.1087 29.3126 39.1087 19.5531V19.5543Z" fill="white"/>
</svg>
