<svg width="40" height="39" viewBox="0 0 40 39" fill="none" xmlns="http://www.w3.org/2000/svg">
<path d="M20.4442 0.00122221C9.63978 0.00122221 0.888672 8.75722 0.888672 19.5568C0.888672 28.1991 6.49134 35.5275 14.2598 38.1101C15.2376 38.2947 15.5957 37.6897 15.5957 37.1702C15.5957 36.7058 15.5798 35.475 15.5712 33.8458C10.1311 35.0252 8.98467 31.2217 8.98467 31.2217C8.09489 28.9642 6.80911 28.3617 6.80911 28.3617C5.03812 27.1492 6.946 27.1737 6.946 27.1737C8.91011 27.3106 9.94167 29.1879 9.94167 29.1879C11.6858 32.1787 14.5189 31.3146 15.6372 30.8147C15.8132 29.5497 16.3168 28.688 16.8753 28.1991C12.5328 27.7102 7.96778 26.0284 7.96778 18.535C7.96778 16.3998 8.72556 14.6569 9.98078 13.288C9.76078 12.7942 9.10078 10.8057 10.1519 8.11189C10.1519 8.11189 11.7897 7.58755 15.5297 10.1163C17.0941 9.68122 18.7563 9.46611 20.4186 9.45633C22.0808 9.46611 23.743 9.68122 25.3074 10.1163C29.023 7.58755 30.6608 8.11189 30.6608 8.11189C31.7119 10.8057 31.0519 12.7942 30.8563 13.288C32.103 14.6569 32.8608 16.401 32.8608 18.535C32.8608 26.048 28.2897 27.7017 23.9386 28.182C24.623 28.7687 25.2586 29.9677 25.2586 31.7998C25.2586 34.4165 25.2341 36.5188 25.2341 37.1543C25.2341 37.6677 25.5763 38.2788 26.5786 38.0832C34.402 35.5178 39.9998 28.1844 39.9998 19.5556C39.9998 8.756 31.2438 0 20.4442 0V0.00122221Z" fill="white"/>
</svg>
