<svg width="40" height="40" viewBox="0 0 40 40" fill="none" xmlns="http://www.w3.org/2000/svg">
<path d="M20.2221 0C14.9091 0 14.2466 0.0244444 12.1603 0.117333C10.0776 0.215111 8.65984 0.542667 7.41317 1.02667C6.12739 1.52533 5.03595 2.19511 3.94817 3.28167C2.86039 4.36822 2.18939 5.45844 1.69317 6.74667C1.20917 7.99333 0.880393 9.41111 0.783837 11.4938C0.686059 13.5801 0.666504 14.2426 0.666504 19.5556C0.666504 24.8686 0.690948 25.531 0.783837 27.6173C0.881615 29.6988 1.20917 31.1178 1.69317 32.3644C2.19184 33.649 2.86161 34.7417 3.94817 35.8294C5.03473 36.9148 6.12495 37.5882 7.41317 38.0844C8.66106 38.5672 10.0788 38.8972 12.1603 38.9938C14.2466 39.0915 14.9091 39.1111 20.2221 39.1111C25.5351 39.1111 26.1975 39.0867 28.2838 38.9938C30.3653 38.896 31.7843 38.5672 33.0309 38.0844C34.3155 37.5858 35.4082 36.9148 36.4959 35.8294C37.5813 34.7429 38.2547 33.6539 38.7509 32.3644C39.2337 31.1178 39.5637 29.6988 39.6603 27.6173C39.758 25.531 39.7776 24.8686 39.7776 19.5556C39.7776 14.2426 39.7532 13.5801 39.6603 11.4938C39.5625 9.41233 39.2337 7.99211 38.7509 6.74667C38.2523 5.46089 37.5813 4.36944 36.4959 3.28167C35.4094 2.19511 34.3204 1.52289 33.0309 1.02667C31.7843 0.542667 30.3653 0.213889 28.2838 0.117333C26.1975 0.0195556 25.5351 0 20.2221 0V0ZM20.2221 3.52C25.4422 3.52 26.0643 3.54567 28.1262 3.63611C30.0328 3.72533 31.0681 4.04189 31.7549 4.312C32.6704 4.66522 33.3194 5.08933 34.0075 5.77255C34.6907 6.457 35.1136 7.10722 35.4681 8.02267C35.7357 8.71078 36.0547 9.74478 36.1415 11.6514C36.2344 13.7146 36.2552 14.3342 36.2552 19.5556C36.2552 24.7769 36.2307 25.3978 36.1342 27.4597C36.0352 29.3663 35.7174 30.4016 35.4485 31.0884C35.0831 32.0039 34.6675 32.6529 33.9831 33.341C33.2998 34.0242 32.6398 34.4471 31.7342 34.8015C31.0497 35.0692 29.9986 35.3882 28.0919 35.475C26.0154 35.5679 25.4043 35.5887 20.1732 35.5887C14.9408 35.5887 14.3297 35.5642 12.2544 35.4677C10.3465 35.3687 9.29539 35.0509 8.61095 34.782C7.68328 34.4165 7.0465 34.001 6.36328 33.3166C5.67761 32.6333 5.23884 31.9733 4.89661 31.0677C4.62773 30.3832 4.31117 29.3321 4.21217 27.4254C4.13884 25.3721 4.11317 24.7378 4.11317 19.5311C4.11317 14.3232 4.13884 13.6877 4.21217 11.6099C4.31117 9.70322 4.62773 8.65333 4.89661 7.96889C5.23884 7.04 5.67761 6.40444 6.36328 5.71878C7.0465 5.03555 7.68328 4.59555 8.61095 4.25578C9.29539 3.98567 10.3233 3.66789 12.2299 3.57011C14.3077 3.49678 14.9188 3.47233 20.1487 3.47233L20.2221 3.52ZM20.2221 9.51378C14.6732 9.51378 10.1803 14.0116 10.1803 19.5556C10.1803 25.1044 14.6781 29.5973 20.2221 29.5973C25.7709 29.5973 30.2638 25.0996 30.2638 19.5556C30.2638 14.0067 25.7661 9.51378 20.2221 9.51378ZM20.2221 26.0737C16.6202 26.0737 13.7039 23.1562 13.7039 19.5556C13.7039 15.9549 16.6214 13.0374 20.2221 13.0374C23.8227 13.0374 26.7402 15.9549 26.7402 19.5556C26.7402 23.1562 23.8227 26.0737 20.2221 26.0737ZM33.0077 9.11778C33.0077 10.4133 31.9554 11.4644 30.6611 11.4644C29.3655 11.4644 28.3144 10.4121 28.3144 9.11778C28.3144 7.82344 29.3667 6.77233 30.6611 6.77233C31.9529 6.77111 33.0077 7.82344 33.0077 9.11778Z" fill="white"/>
</svg>
