<svg width="40" height="40" viewBox="0 0 40 40" fill="none" xmlns="http://www.w3.org/2000/svg">
<path d="M34.2101 33.3288H28.418V24.2538C28.418 22.0892 28.374 19.305 25.4003 19.305C22.3802 19.305 21.9194 21.6602 21.9194 24.0949V33.33H16.1273V14.6679H21.6909V17.2113H21.7654C22.5428 15.7447 24.4336 14.1961 27.2569 14.1961C33.1248 14.1961 34.2101 18.0583 34.2101 23.0853V33.3288ZM9.586 12.1134C7.72212 12.1134 6.22367 10.604 6.22367 8.74866C6.22367 6.89455 7.72334 5.38633 9.586 5.38633C11.4438 5.38633 12.9496 6.89333 12.9496 8.74866C12.9496 10.6052 11.4426 12.1134 9.586 12.1134V12.1134ZM12.49 33.3288H6.682V14.6667H12.49V33.3288ZM37.1068 0H3.77434C2.17934 0 0.888672 1.26133 0.888672 2.81722V36.2927C0.888672 37.851 2.17934 39.1099 3.77434 39.1099H37.1019C38.6957 39.1099 39.9998 37.8498 39.9998 36.2927V2.81722C39.9998 1.26133 38.6957 0 37.1019 0L37.1068 0Z" fill="white"/>
</svg>
