<svg width="40" height="33" viewBox="0 0 40 33" fill="none" xmlns="http://www.w3.org/2000/svg">
<path d="M39.8144 4.45295C38.3722 5.08728 36.8322 5.51873 35.2103 5.7155C36.8627 4.71939 38.1338 3.15006 38.7352 1.27761C37.1854 2.18206 35.4682 2.84084 33.6397 3.2075C32.1792 1.64428 30.0989 0.666504 27.7877 0.666504C23.3596 0.666504 19.7699 4.25617 19.7699 8.67939C19.7699 9.31495 19.8433 9.92606 19.9765 10.5115C13.3117 10.1974 7.4035 6.99639 3.45083 2.15762C2.75539 3.33461 2.3655 4.70106 2.3655 6.19095C2.3655 8.97761 3.78328 11.4269 5.93072 12.8655C4.61561 12.8227 3.37872 12.4609 2.2995 11.8621V11.9611C2.2995 15.8477 5.05805 19.0891 8.72961 19.8273C8.05616 20.0082 7.34605 20.1059 6.61761 20.1059C6.1055 20.1059 5.61539 20.0571 5.12528 19.9654C6.15316 23.1481 9.10972 25.4691 12.6285 25.5338C9.89072 27.6837 6.42083 28.9646 2.6845 28.9646C2.04894 28.9646 1.41461 28.9267 0.777832 28.8558C4.3455 31.1279 8.5475 32.4553 13.0929 32.4553C27.8476 32.4553 35.9057 20.2392 35.9057 9.66328C35.9057 9.32228 35.9057 8.97884 35.8813 8.63661C37.4469 7.51339 38.8146 6.09439 39.8902 4.48473L39.8144 4.45295Z" fill="white"/>
</svg>
